<?xml version="1.0" encoding="iso-8859-1"?>
<!-- White variant of icon.svg for dark backgrounds and app icon conversion. -->
<!DOCTYPE svg PUBLIC "-//W3C//DTD SVG 1.1//EN" "http://www.w3.org/Graphics/SVG/1.1/DTD/svg11.dtd">
<svg fill="#FFFFFF" version="1.1" id="Capa_1" xmlns="http://www.w3.org/2000/svg" xmlns:xlink="http://www.w3.org/1999/xlink"
     width="800px" height="800px" viewBox="0 0 97.409 97.408"
     xml:space="preserve">
<g>
    <g>
        <path d="M81.838,81.496H78.34V41.418c0-1.754-1.422-3.177-3.179-3.177h-8.667c-1.754,0-3.178,1.423-3.178,3.177v40.078h-3.502
            c-0.805,0-1.537,0.467-1.873,1.197c-0.338,0.73-0.221,1.591,0.301,2.203l9.381,11.031c0.8,0.938,1.969,1.48,3.204,1.48
            s2.405-0.542,3.205-1.48l9.38-11.031c0.523-0.612,0.641-1.473,0.303-2.203S82.649,81.496,81.838,81.496z"/>
        <path d="M30.031,38.242H17.256c-2.071,0-3.755,1.681-3.755,3.753v51.66c0,2.073,1.684,3.753,3.755,3.753H30.03
            c2.071,0,3.751-1.68,3.751-3.753v-51.66C33.782,39.922,32.102,38.242,30.031,38.242z M23.644,89.487
            c-3.003,0-5.435-2.435-5.435-5.435s2.432-5.434,5.435-5.434c2.999,0,5.432,2.434,5.432,5.434
            C29.076,87.055,26.643,89.487,23.644,89.487z M29.076,69.416H18.208V48.117h10.866L29.076,69.416L29.076,69.416z"/>
        <path d="M55.25,81.443c0.654-1.422,1.949-2.408,3.442-2.756V41.995c0-2.073-1.682-3.753-3.756-3.753H42.166
            c-2.073,0-3.757,1.681-3.757,3.753v51.66c0,2.073,1.684,3.753,3.757,3.753h12.771c2.074,0,3.756-1.68,3.756-3.753V90.01
            l-2.713-3.188C54.711,85.331,54.423,83.221,55.25,81.443z M48.551,89.487c-3.001,0-5.433-2.435-5.433-5.435
            s2.432-5.434,5.433-5.434c3,0,5.434,2.434,5.434,5.434C53.985,87.055,51.551,89.487,48.551,89.487z M53.985,69.416H43.119V48.117
            h10.866V69.416z"/>
        <path d="M76.692,14.267c-0.696-0.06-1.334-0.416-1.752-0.976c-3.797-5.114-9.879-8.267-16.348-8.267
            c-0.398,0-0.797,0.012-1.195,0.035c-0.576,0.034-1.146-0.139-1.607-0.486C51.85,1.607,47.076,0,42.08,0
            c-8.952,0-16.899,5.179-20.627,13.027c-0.351,0.74-1.051,1.253-1.861,1.369C9.728,15.8,2.118,24.302,2.118,34.547
            c0,6.397,2.973,12.106,7.602,15.839v-8.391c0-1.356,0.365-2.626,0.994-3.727c-0.372-1.175-0.576-2.425-0.576-3.722
            c0-6.802,5.534-12.335,12.335-12.335c0.343,0,0.682,0.027,1.018,0.055c1.96,0.151,3.734-1.12,4.212-3.021
            C29.36,12.636,35.273,8.02,42.081,8.02c3.889,0,7.57,1.502,10.365,4.229c0.955,0.931,2.311,1.328,3.617,1.056
            c0.832-0.173,1.684-0.262,2.529-0.262c4.764,0,9.016,2.677,11.1,6.986c0.731,1.516,2.332,2.417,4.008,2.245
            c0.417-0.042,0.834-0.063,1.236-0.063c6.803,0,12.336,5.533,12.336,12.335c0,4.117-2.034,7.759-5.145,10.001v9.015
            c7.682-2.914,13.163-10.327,13.163-19.016C95.29,23.914,87.096,15.161,76.692,14.267z"/>
    </g>
</g>
</svg>
